<?xml version="1.0" encoding="utf-8"?>
<!-- Generator: Adobe Illustrator 15.1.0, SVG Export Plug-In . SVG Version: 6.00 Build 0)  -->
<!DOCTYPE svg PUBLIC "-//W3C//DTD SVG 1.1//EN" "http://www.w3.org/Graphics/SVG/1.1/DTD/svg11.dtd">
<svg version="1.1" id="圖層_1" xmlns="http://www.w3.org/2000/svg" xmlns:xlink="http://www.w3.org/1999/xlink" x="0px" y="0px"
	 width="367.616px" height="86.682px" viewBox="0 0 367.616 86.682" enable-background="new 0 0 367.616 86.682"
	 xml:space="preserve">
<g>
	<defs>
		<rect id="SVGID_1_" y="0" width="367.616" height="86.682"/>
	</defs>
	<clipPath id="SVGID_2_">
		<use xlink:href="#SVGID_1_"  overflow="visible"/>
	</clipPath>
	<path clip-path="url(#SVGID_2_)" fill="#E60012" d="M44.865,39.258c0.526-0.076,1.028-0.133,1.506-0.169
		c0.477-0.039,1.005-0.059,1.582-0.059c0.502,0,0.992,0.02,1.47,0.059c0.477,0.036,1.003,0.093,1.581,0.169l8.478,27.087
		c-1.03,0.149-2.035,0.227-3.014,0.227c-0.955,0-1.885-0.077-2.788-0.227l-1.508-5.425h-8.966l-1.543,5.425
		c-0.906,0.149-1.773,0.227-2.601,0.227c-0.931,0-1.846-0.077-2.751-0.227L44.865,39.258z M50.892,56.362l-3.127-11.379
		l-3.277,11.379H50.892z"/>
	<path clip-path="url(#SVGID_2_)" fill="#E60012" d="M62.534,39.257c0.929-0.148,1.846-0.227,2.751-0.227
		c0.903,0,1.833,0.079,2.786,0.227v27.089c-0.953,0.149-1.871,0.227-2.749,0.227c-0.93,0-1.859-0.077-2.788-0.227V39.257z"/>
	<path clip-path="url(#SVGID_2_)" fill="#E60012" d="M81.597,66.797c-1.583,0-2.958-0.255-4.127-0.771
		c-1.167-0.517-2.135-1.232-2.9-2.149c-0.766-0.916-1.344-1.99-1.734-3.22c-0.388-1.23-0.584-2.562-0.584-3.995
		c0-1.432,0.196-2.773,0.584-4.03c0.39-1.255,0.968-2.34,1.734-3.258c0.765-0.915,1.733-1.641,2.9-2.165
		c1.169-0.53,2.544-0.792,4.127-0.792c1.581,0,2.963,0.262,4.143,0.792c1.181,0.524,2.162,1.25,2.94,2.165
		c0.778,0.918,1.356,2.003,1.732,3.258c0.377,1.257,0.565,2.599,0.565,4.03c0,1.434-0.188,2.765-0.565,3.995
		c-0.376,1.229-0.954,2.304-1.732,3.22c-0.778,0.917-1.759,1.633-2.94,2.149C84.56,66.542,83.178,66.797,81.597,66.797
		 M81.597,62.729c1.406,0,2.417-0.521,3.032-1.562c0.614-1.043,0.923-2.544,0.923-4.506c0-1.958-0.309-3.459-0.923-4.502
		c-0.615-1.042-1.626-1.563-3.032-1.563c-1.382,0-2.381,0.521-2.995,1.563c-0.616,1.043-0.923,2.544-0.923,4.502
		c0,1.962,0.307,3.463,0.923,4.506C79.216,62.209,80.215,62.729,81.597,62.729"/>
	<path clip-path="url(#SVGID_2_)" fill="#E60012" d="M100.471,43.929h-6.743c-0.151-0.754-0.228-1.544-0.228-2.372
		c0-0.778,0.077-1.546,0.228-2.3h19.025c0.152,0.754,0.227,1.522,0.227,2.3c0,0.828-0.075,1.618-0.227,2.372h-6.743v22.417
		c-0.452,0.05-0.905,0.095-1.357,0.132c-0.452,0.037-0.892,0.058-1.319,0.058c-0.426,0-0.885-0.015-1.375-0.04
		c-0.488-0.024-0.985-0.074-1.488-0.149V43.929z"/>
	<path clip-path="url(#SVGID_2_)" fill="#E60012" d="M157.479,86.529h191.315V17.541H157.479V86.529z M348.796,17.539h18.82V0
		h-18.82V17.539z"/>
	<path clip-path="url(#SVGID_2_)" fill="#FFFFFF" d="M321.451,54.671c4.424-0.958,7.01-4.247,8.2-8.289l-4.839-1.485
		c-0.813,3.968-4.785,6.959-8.533,6.959V38.149h-5.108v27.569h5.108v-8.125c3.925,0,9.258,3.739,9.258,8.125h5.107
		C330.444,61.159,327.334,55.934,321.451,54.671 M300.858,53.381h-4.578c-1.603,0-2.408-0.641-2.408-1.93
		c0-1.412,2.361-2.119,5.127-2.119c2.637,0,5.394,0.448,7.644,1.351v-4.243c-2.25-0.771-4.964-1.155-7.509-1.155
		c-6.001,0-9.983,2.118-9.983,6.359c0,4.114,2.057,6.172,6.169,6.172h4.961c1.479,0,2.215,0.642,2.215,1.928
		c0,1.414-1.414,2.119-3.613,2.119c-2.944,0-6.518-0.449-8.77-1.349v4.243c2.252,0.771,5.761,1.153,8.578,1.153
		c5.732,0,8.912-2.119,8.912-6.361C307.603,55.437,305.355,53.381,300.858,53.381 M280.186,42.2h5.107v-4.05h-5.107V42.2z
		 M280.186,65.719h5.107V45.476h-5.107V65.719z M270.258,46.439c-1.427-0.643-3.016-0.964-4.764-0.964
		c-6.528,0-9.794,3.238-9.794,9.718c0,7.017,3.401,10.525,10.199,10.525c3.213,0,6.369-0.404,9.466-1.215V38.149h-5.107V46.439z
		 M270.258,60.648c-1.313,0.501-2.895,0.752-4.742,0.752c-3.179,0-4.764-2.113-4.764-6.345c0-3.559,1.585-5.339,4.764-5.339
		c1.848,0,3.43,0.348,4.742,1.043V60.648z M242.88,45.284c-6.812,0-10.218,3.438-10.218,10.313
		c0.023,6.863,3.433,10.295,10.218,10.295c6.81,0,10.218-3.432,10.218-10.295C253.098,48.722,249.689,45.284,242.88,45.284
		 M242.88,61.862c-3.405,0-5.108-2.113-5.108-6.342c0-4.125,1.703-6.188,5.108-6.188c3.404,0,5.108,2.063,5.108,6.188
		C247.988,59.749,246.284,61.862,242.88,61.862 M222.097,45.476c-2.481,0-4.95,0.861-7.405,2.583l-0.633-2.583h-3.955v20.243h5.11
		V52.165c1.837-1.708,3.65-2.563,5.436-2.563c2.224,0,3.334,1.117,3.334,3.353v12.764h5.111V53.015
		C229.095,47.989,226.762,45.476,222.097,45.476 M198.286,45.476c-2.479,0-4.95,0.861-7.403,2.583l-0.638-2.583h-3.953v20.243h5.11
		V52.165c1.839-1.708,3.652-2.563,5.437-2.563c2.223,0,3.339,1.117,3.339,3.353v12.764h5.107V53.015
		C205.285,47.989,202.95,45.476,198.286,45.476 M176.364,42.2h5.11v-4.05h-5.11V42.2z M176.364,65.719h5.11V45.476h-5.11V65.719z"/>
	
		<rect x="0.902" y="18.91" clip-path="url(#SVGID_2_)" fill="none" stroke="#E60012" stroke-width="1.805" width="148.051" height="66.87"/>
</g>
</svg>
