<?xml version="1.0" encoding="utf-8"?>
<!-- Generator: Adobe Illustrator 15.1.0, SVG Export Plug-In . SVG Version: 6.00 Build 0)  -->
<!DOCTYPE svg PUBLIC "-//W3C//DTD SVG 1.1//EN" "http://www.w3.org/Graphics/SVG/1.1/DTD/svg11.dtd">
<svg version="1.1" id="圖層_1" xmlns="http://www.w3.org/2000/svg" xmlns:xlink="http://www.w3.org/1999/xlink" x="0px" y="0px"
	 width="55.749px" height="55.91px" viewBox="0 0 55.749 55.91" enable-background="new 0 0 55.749 55.91" xml:space="preserve">
<g>
	<defs>
		<rect id="SVGID_1_" x="-1" y="0" width="55.749" height="55.91"/>
	</defs>
	<clipPath id="SVGID_2_">
		<use xlink:href="#SVGID_1_"  overflow="visible"/>
	</clipPath>
	<path display="none" clip-path="url(#SVGID_2_)" fill="none" stroke="#16272e" stroke-width="2" stroke-miterlimit="10" d="
		M17.213,50.686c-7.079-3.122-12.482-9.345-14.488-16.948"/>
	<path display="none" clip-path="url(#SVGID_2_)" fill="none" stroke="#16272e" stroke-width="2" stroke-miterlimit="10" d="
		M21.062,2.3c2.079-0.543,4.261-0.832,6.511-0.832c14.191,0,25.695,11.504,25.695,25.696c0,14.192-11.504,25.696-25.695,25.696
		c-3.246,0-6.351-0.602-9.209-1.7"/>
	<path display="none" clip-path="url(#SVGID_2_)" fill="none" stroke="#16272e" stroke-width="5" stroke-miterlimit="10" d="
		M4.247,35.225C3.374,32.699,2.9,29.987,2.9,27.164"/>
	<path display="none" clip-path="url(#SVGID_2_)" fill="none" stroke="#16272e" stroke-width="5" stroke-miterlimit="10" d="
		M15.55,48.714c-0.401-0.224-0.796-0.46-1.184-0.706c-3.817-2.423-6.924-5.868-8.937-9.948"/>
	<path display="none" clip-path="url(#SVGID_2_)" fill="none" stroke="#16272e" stroke-width="5" stroke-miterlimit="10" d="
		M21.957,51.195c-0.626-0.146-1.243-0.315-1.849-0.508"/>
	<path display="none" clip-path="url(#SVGID_2_)" fill="none" stroke="#16272e" stroke-width="5" stroke-miterlimit="10" d="
		M48.939,14.828c3.373,5.842,4.084,12.49,2.512,18.541"/>
	
		<line clip-path="url(#SVGID_2_)" fill="none" stroke="#16272e" stroke-width="0.75" stroke-miterlimit="10" x1="27.854" y1="8.853" x2="27.854" y2="7.784"/>
	
		<line clip-path="url(#SVGID_2_)" fill="none" stroke="#16272e" stroke-width="0.75" stroke-miterlimit="10" x1="9.26" y1="27.446" x2="8.192" y2="27.446"/>
	
		<line clip-path="url(#SVGID_2_)" fill="none" stroke="#16272e" stroke-width="0.75" stroke-miterlimit="10" x1="27.854" y1="46.04" x2="27.854" y2="47.109"/>
	
		<line clip-path="url(#SVGID_2_)" fill="none" stroke="#16272e" stroke-width="0.75" stroke-miterlimit="10" x1="46.447" y1="27.446" x2="47.516" y2="27.446"/>
	
		<line clip-path="url(#SVGID_2_)" fill="none" stroke="#16272e" stroke-width="0.75" stroke-miterlimit="10" x1="26.196" y1="8.495" x2="26.14" y2="7.858"/>
	
		<line clip-path="url(#SVGID_2_)" fill="none" stroke="#16272e" stroke-width="0.75" stroke-miterlimit="10" x1="24.551" y1="8.712" x2="24.44" y2="8.083"/>
	
		<line clip-path="url(#SVGID_2_)" fill="none" stroke="#16272e" stroke-width="0.75" stroke-miterlimit="10" x1="22.93" y1="9.071" x2="22.765" y2="8.454"/>
	
		<line clip-path="url(#SVGID_2_)" fill="none" stroke="#16272e" stroke-width="0.75" stroke-miterlimit="10" x1="21.348" y1="9.57" x2="21.129" y2="8.97"/>
	
		<line clip-path="url(#SVGID_2_)" fill="none" stroke="#16272e" stroke-width="0.75" stroke-miterlimit="10" x1="19.814" y1="10.205" x2="19.544" y2="9.626"/>
	
		<line clip-path="url(#SVGID_2_)" fill="none" stroke="#16272e" stroke-width="0.75" stroke-miterlimit="10" x1="18.342" y1="10.971" x2="18.023" y2="10.418"/>
	
		<line clip-path="url(#SVGID_2_)" fill="none" stroke="#16272e" stroke-width="0.75" stroke-miterlimit="10" x1="16.943" y1="11.863" x2="16.576" y2="11.34"/>
	
		<line clip-path="url(#SVGID_2_)" fill="none" stroke="#16272e" stroke-width="0.75" stroke-miterlimit="10" x1="15.626" y1="12.874" x2="15.215" y2="12.384"/>
	
		<line clip-path="url(#SVGID_2_)" fill="none" stroke="#16272e" stroke-width="0.75" stroke-miterlimit="10" x1="14.402" y1="13.995" x2="13.951" y2="13.542"/>
	
		<line clip-path="url(#SVGID_2_)" fill="none" stroke="#16272e" stroke-width="0.75" stroke-miterlimit="10" x1="13.281" y1="15.218" x2="12.792" y2="14.807"/>
	
		<line clip-path="url(#SVGID_2_)" fill="none" stroke="#16272e" stroke-width="0.75" stroke-miterlimit="10" x1="12.271" y1="16.535" x2="11.748" y2="16.168"/>
	
		<line clip-path="url(#SVGID_2_)" fill="none" stroke="#16272e" stroke-width="0.75" stroke-miterlimit="10" x1="11.379" y1="17.935" x2="10.827" y2="17.615"/>
	
		<line clip-path="url(#SVGID_2_)" fill="none" stroke="#16272e" stroke-width="0.75" stroke-miterlimit="10" x1="10.613" y1="19.406" x2="10.034" y2="19.136"/>
	
		<line clip-path="url(#SVGID_2_)" fill="none" stroke="#16272e" stroke-width="0.75" stroke-miterlimit="10" x1="9.978" y1="20.939" x2="9.377" y2="20.722"/>
	
		<line clip-path="url(#SVGID_2_)" fill="none" stroke="#16272e" stroke-width="0.75" stroke-miterlimit="10" x1="9.479" y1="22.522" x2="8.862" y2="22.356"/>
	
		<line clip-path="url(#SVGID_2_)" fill="none" stroke="#16272e" stroke-width="0.75" stroke-miterlimit="10" x1="9.12" y1="24.143" x2="8.491" y2="24.032"/>
	
		<line clip-path="url(#SVGID_2_)" fill="none" stroke="#16272e" stroke-width="0.75" stroke-miterlimit="10" x1="8.903" y1="25.788" x2="8.267" y2="25.732"/>
	
		<line clip-path="url(#SVGID_2_)" fill="none" stroke="#16272e" stroke-width="0.75" stroke-miterlimit="10" x1="8.903" y1="29.104" x2="8.267" y2="29.16"/>
	
		<line clip-path="url(#SVGID_2_)" fill="none" stroke="#16272e" stroke-width="0.75" stroke-miterlimit="10" x1="9.12" y1="30.75" x2="8.491" y2="30.861"/>
	
		<line clip-path="url(#SVGID_2_)" fill="none" stroke="#16272e" stroke-width="0.75" stroke-miterlimit="10" x1="9.479" y1="32.37" x2="8.862" y2="32.536"/>
	
		<line clip-path="url(#SVGID_2_)" fill="none" stroke="#16272e" stroke-width="0.75" stroke-miterlimit="10" x1="9.978" y1="33.953" x2="9.377" y2="34.17"/>
	
		<line clip-path="url(#SVGID_2_)" fill="none" stroke="#16272e" stroke-width="0.75" stroke-miterlimit="10" x1="10.613" y1="35.486" x2="10.034" y2="35.756"/>
	
		<line clip-path="url(#SVGID_2_)" fill="none" stroke="#16272e" stroke-width="0.75" stroke-miterlimit="10" x1="11.379" y1="36.958" x2="10.827" y2="37.278"/>
	
		<line clip-path="url(#SVGID_2_)" fill="none" stroke="#16272e" stroke-width="0.75" stroke-miterlimit="10" x1="12.271" y1="38.358" x2="11.748" y2="38.723"/>
	
		<line clip-path="url(#SVGID_2_)" fill="none" stroke="#16272e" stroke-width="0.75" stroke-miterlimit="10" x1="13.281" y1="39.674" x2="12.792" y2="40.084"/>
	
		<line clip-path="url(#SVGID_2_)" fill="none" stroke="#16272e" stroke-width="0.75" stroke-miterlimit="10" x1="14.402" y1="40.898" x2="13.951" y2="41.349"/>
	
		<line clip-path="url(#SVGID_2_)" fill="none" stroke="#16272e" stroke-width="0.75" stroke-miterlimit="10" x1="15.626" y1="42.019" x2="15.215" y2="42.508"/>
	
		<line clip-path="url(#SVGID_2_)" fill="none" stroke="#16272e" stroke-width="0.75" stroke-miterlimit="10" x1="16.943" y1="43.03" x2="16.576" y2="43.552"/>
	
		<line clip-path="url(#SVGID_2_)" fill="none" stroke="#16272e" stroke-width="0.75" stroke-miterlimit="10" x1="18.342" y1="43.921" x2="18.023" y2="44.474"/>
	
		<line clip-path="url(#SVGID_2_)" fill="none" stroke="#16272e" stroke-width="0.75" stroke-miterlimit="10" x1="19.814" y1="44.687" x2="19.544" y2="45.266"/>
	
		<line clip-path="url(#SVGID_2_)" fill="none" stroke="#16272e" stroke-width="0.75" stroke-miterlimit="10" x1="21.348" y1="45.323" x2="21.129" y2="45.922"/>
	
		<line clip-path="url(#SVGID_2_)" fill="none" stroke="#16272e" stroke-width="0.75" stroke-miterlimit="10" x1="22.93" y1="45.822" x2="22.765" y2="46.438"/>
	
		<line clip-path="url(#SVGID_2_)" fill="none" stroke="#16272e" stroke-width="0.75" stroke-miterlimit="10" x1="24.551" y1="46.181" x2="24.44" y2="46.81"/>
	
		<line clip-path="url(#SVGID_2_)" fill="none" stroke="#16272e" stroke-width="0.75" stroke-miterlimit="10" x1="26.196" y1="46.397" x2="26.14" y2="47.034"/>
	
		<line clip-path="url(#SVGID_2_)" fill="none" stroke="#16272e" stroke-width="0.75" stroke-miterlimit="10" x1="29.512" y1="46.397" x2="29.568" y2="47.034"/>
	
		<line clip-path="url(#SVGID_2_)" fill="none" stroke="#16272e" stroke-width="0.75" stroke-miterlimit="10" x1="31.158" y1="46.181" x2="31.268" y2="46.81"/>
	
		<line clip-path="url(#SVGID_2_)" fill="none" stroke="#16272e" stroke-width="0.75" stroke-miterlimit="10" x1="32.777" y1="45.822" x2="32.943" y2="46.438"/>
	
		<line clip-path="url(#SVGID_2_)" fill="none" stroke="#16272e" stroke-width="0.75" stroke-miterlimit="10" x1="34.361" y1="45.323" x2="34.58" y2="45.922"/>
	
		<line clip-path="url(#SVGID_2_)" fill="none" stroke="#16272e" stroke-width="0.75" stroke-miterlimit="10" x1="35.895" y1="44.687" x2="36.164" y2="45.266"/>
	
		<line clip-path="url(#SVGID_2_)" fill="none" stroke="#16272e" stroke-width="0.75" stroke-miterlimit="10" x1="37.365" y1="43.921" x2="37.686" y2="44.474"/>
	
		<line clip-path="url(#SVGID_2_)" fill="none" stroke="#16272e" stroke-width="0.75" stroke-miterlimit="10" x1="38.766" y1="43.03" x2="39.131" y2="43.552"/>
	
		<line clip-path="url(#SVGID_2_)" fill="none" stroke="#16272e" stroke-width="0.75" stroke-miterlimit="10" x1="40.082" y1="42.019" x2="40.494" y2="42.508"/>
	
		<line clip-path="url(#SVGID_2_)" fill="none" stroke="#16272e" stroke-width="0.75" stroke-miterlimit="10" x1="41.307" y1="40.898" x2="41.758" y2="41.349"/>
	
		<line clip-path="url(#SVGID_2_)" fill="none" stroke="#16272e" stroke-width="0.75" stroke-miterlimit="10" x1="42.428" y1="39.674" x2="42.916" y2="40.084"/>
	
		<line clip-path="url(#SVGID_2_)" fill="none" stroke="#16272e" stroke-width="0.75" stroke-miterlimit="10" x1="43.438" y1="38.358" x2="43.961" y2="38.723"/>
	
		<line clip-path="url(#SVGID_2_)" fill="none" stroke="#16272e" stroke-width="0.75" stroke-miterlimit="10" x1="44.328" y1="36.958" x2="44.881" y2="37.278"/>
	
		<line clip-path="url(#SVGID_2_)" fill="none" stroke="#16272e" stroke-width="0.75" stroke-miterlimit="10" x1="45.096" y1="35.486" x2="45.674" y2="35.756"/>
	
		<line clip-path="url(#SVGID_2_)" fill="none" stroke="#16272e" stroke-width="0.75" stroke-miterlimit="10" x1="45.73" y1="33.953" x2="46.332" y2="34.17"/>
	
		<line clip-path="url(#SVGID_2_)" fill="none" stroke="#16272e" stroke-width="0.75" stroke-miterlimit="10" x1="46.229" y1="32.37" x2="46.846" y2="32.536"/>
	
		<line clip-path="url(#SVGID_2_)" fill="none" stroke="#16272e" stroke-width="0.75" stroke-miterlimit="10" x1="46.588" y1="30.75" x2="47.217" y2="30.861"/>
	
		<line clip-path="url(#SVGID_2_)" fill="none" stroke="#16272e" stroke-width="0.75" stroke-miterlimit="10" x1="46.805" y1="29.104" x2="47.441" y2="29.16"/>
	
		<line clip-path="url(#SVGID_2_)" fill="none" stroke="#16272e" stroke-width="0.75" stroke-miterlimit="10" x1="46.805" y1="25.788" x2="47.441" y2="25.732"/>
	
		<line clip-path="url(#SVGID_2_)" fill="none" stroke="#16272e" stroke-width="0.75" stroke-miterlimit="10" x1="46.588" y1="24.143" x2="47.217" y2="24.032"/>
	
		<line clip-path="url(#SVGID_2_)" fill="none" stroke="#16272e" stroke-width="0.75" stroke-miterlimit="10" x1="46.229" y1="22.522" x2="46.846" y2="22.356"/>
	
		<line clip-path="url(#SVGID_2_)" fill="none" stroke="#16272e" stroke-width="0.75" stroke-miterlimit="10" x1="45.73" y1="20.939" x2="46.332" y2="20.722"/>
	
		<line clip-path="url(#SVGID_2_)" fill="none" stroke="#16272e" stroke-width="0.75" stroke-miterlimit="10" x1="45.096" y1="19.406" x2="45.674" y2="19.136"/>
	
		<line clip-path="url(#SVGID_2_)" fill="none" stroke="#16272e" stroke-width="0.75" stroke-miterlimit="10" x1="44.328" y1="17.935" x2="44.881" y2="17.615"/>
	
		<line clip-path="url(#SVGID_2_)" fill="none" stroke="#16272e" stroke-width="0.75" stroke-miterlimit="10" x1="43.438" y1="16.535" x2="43.961" y2="16.168"/>
	
		<line clip-path="url(#SVGID_2_)" fill="none" stroke="#16272e" stroke-width="0.75" stroke-miterlimit="10" x1="42.428" y1="15.218" x2="42.916" y2="14.807"/>
	
		<line clip-path="url(#SVGID_2_)" fill="none" stroke="#16272e" stroke-width="0.75" stroke-miterlimit="10" x1="41.307" y1="13.995" x2="41.758" y2="13.542"/>
	
		<line clip-path="url(#SVGID_2_)" fill="none" stroke="#16272e" stroke-width="0.75" stroke-miterlimit="10" x1="40.082" y1="12.874" x2="40.494" y2="12.384"/>
	
		<line clip-path="url(#SVGID_2_)" fill="none" stroke="#16272e" stroke-width="0.75" stroke-miterlimit="10" x1="38.766" y1="11.863" x2="39.131" y2="11.34"/>
	
		<line clip-path="url(#SVGID_2_)" fill="none" stroke="#16272e" stroke-width="0.75" stroke-miterlimit="10" x1="37.365" y1="10.971" x2="37.686" y2="10.418"/>
	
		<line clip-path="url(#SVGID_2_)" fill="none" stroke="#16272e" stroke-width="0.75" stroke-miterlimit="10" x1="35.895" y1="10.205" x2="36.164" y2="9.626"/>
	
		<line clip-path="url(#SVGID_2_)" fill="none" stroke="#16272e" stroke-width="0.75" stroke-miterlimit="10" x1="34.361" y1="9.57" x2="34.58" y2="8.97"/>
	
		<line clip-path="url(#SVGID_2_)" fill="none" stroke="#16272e" stroke-width="0.75" stroke-miterlimit="10" x1="32.777" y1="9.071" x2="32.943" y2="8.454"/>
	
		<line clip-path="url(#SVGID_2_)" fill="none" stroke="#16272e" stroke-width="0.75" stroke-miterlimit="10" x1="31.158" y1="8.712" x2="31.268" y2="8.083"/>
	
		<line clip-path="url(#SVGID_2_)" fill="none" stroke="#16272e" stroke-width="0.75" stroke-miterlimit="10" x1="29.512" y1="8.495" x2="29.568" y2="7.858"/>
	<path clip-path="url(#SVGID_2_)" fill="none" stroke="#16272e" stroke-width="0.5" stroke-miterlimit="10" d="M45.855,25.913
		c0.57,6.759-2.707,13.561-8.971,17.176c-8.639,4.988-19.685,2.028-24.673-6.611"/>
	<path display="none" clip-path="url(#SVGID_2_)" fill="none" stroke="#16272e" stroke-width="5" stroke-miterlimit="10" d="
		M11.713,8.264c4.446-3.731,9.823-5.625,15.207-5.765"/>
	
		<line clip-path="url(#SVGID_2_)" fill="none" stroke="#16272e" stroke-miterlimit="10" x1="27.854" y1="42.856" x2="27.854" y2="43.742"/>
	
		<line clip-path="url(#SVGID_2_)" fill="none" stroke="#16272e" stroke-miterlimit="10" x1="15.776" y1="37.581" x2="15.371" y2="37.92"/>
	
		<line clip-path="url(#SVGID_2_)" fill="none" stroke="#16272e" stroke-miterlimit="10" x1="16.706" y1="38.595" x2="16.331" y2="38.969"/>
	
		<line clip-path="url(#SVGID_2_)" fill="none" stroke="#16272e" stroke-miterlimit="10" x1="17.72" y1="39.524" x2="17.38" y2="39.929"/>
	
		<line clip-path="url(#SVGID_2_)" fill="none" stroke="#16272e" stroke-miterlimit="10" x1="18.811" y1="40.361" x2="18.507" y2="40.794"/>
	
		<line clip-path="url(#SVGID_2_)" fill="none" stroke="#16272e" stroke-miterlimit="10" x1="19.971" y1="41.1" x2="19.706" y2="41.558"/>
	
		<line clip-path="url(#SVGID_2_)" fill="none" stroke="#16272e" stroke-miterlimit="10" x1="21.191" y1="41.736" x2="20.967" y2="42.214"/>
	
		<line clip-path="url(#SVGID_2_)" fill="none" stroke="#16272e" stroke-miterlimit="10" x1="22.461" y1="42.262" x2="22.281" y2="42.76"/>
	
		<line clip-path="url(#SVGID_2_)" fill="none" stroke="#16272e" stroke-miterlimit="10" x1="23.773" y1="42.675" x2="23.637" y2="43.186"/>
	
		<line clip-path="url(#SVGID_2_)" fill="none" stroke="#16272e" stroke-miterlimit="10" x1="25.116" y1="42.973" x2="25.024" y2="43.494"/>
	
		<line clip-path="url(#SVGID_2_)" fill="none" stroke="#16272e" stroke-miterlimit="10" x1="26.48" y1="43.153" x2="26.433" y2="43.679"/>
	
		<line clip-path="url(#SVGID_2_)" fill="none" stroke="#16272e" stroke-miterlimit="10" x1="29.229" y1="43.153" x2="29.273" y2="43.679"/>
	
		<line clip-path="url(#SVGID_2_)" fill="none" stroke="#16272e" stroke-miterlimit="10" x1="30.592" y1="42.973" x2="30.684" y2="43.494"/>
	<path clip-path="url(#SVGID_2_)" fill="none" stroke="#16272e" stroke-width="0.5" stroke-miterlimit="10" d="M10.756,21.623
		c1.36-3.999,4.121-7.541,8.066-9.819c3.9-2.251,8.289-2.883,12.39-2.105"/>
	<circle clip-path="url(#SVGID_2_)" fill="none" stroke="#16272e" stroke-miterlimit="10" cx="27.565" cy="27.158" r="8.249"/>
	<path display="none" clip-path="url(#SVGID_2_)" fill="none" stroke="#16272e" stroke-width="4" stroke-miterlimit="10" d="
		M28.916,2.512c0.641,0.035,1.277,0.095,1.908,0.179"/>
	<path display="none" clip-path="url(#SVGID_2_)" fill="none" stroke="#16272e" stroke-width="0.7" stroke-miterlimit="10" d="
		M53.797,38.915c-0.994,2.167-2.277,4.244-3.857,6.178C39.973,57.284,22.01,59.088,9.818,49.122
		C-2.375,39.155-4.179,21.191,5.788,8.999c2.279-2.788,4.977-5.033,7.928-6.718"/>
</g>
<rect x="47.749" y="-1" display="none" width="8" height="4.833"/>
</svg>
