<?xml version="1.0" encoding="utf-8"?>
<!-- Generator: Adobe Illustrator 15.1.0, SVG Export Plug-In . SVG Version: 6.00 Build 0)  -->
<!DOCTYPE svg PUBLIC "-//W3C//DTD SVG 1.1//EN" "http://www.w3.org/Graphics/SVG/1.1/DTD/svg11.dtd">
<svg version="1.1" id="圖層_1" xmlns="http://www.w3.org/2000/svg" xmlns:xlink="http://www.w3.org/1999/xlink" x="0px" y="0px"
	 width="58.75px" height="58.91px" viewBox="0 0 58.75 58.91" enable-background="new 0 0 58.75 58.91" xml:space="preserve">
<g>
	<defs>
		<rect id="SVGID_1_" x="1.2" y="2" width="55.749" height="55.91"/>
	</defs>
	<clipPath id="SVGID_2_">
		<use xlink:href="#SVGID_1_"  overflow="visible"/>
	</clipPath>
	<path clip-path="url(#SVGID_2_)" fill="none" stroke="#16272e" stroke-width="2" stroke-miterlimit="10" d="M19.413,52.686
		c-7.079-3.122-12.482-9.345-14.488-16.948"/>
	<path clip-path="url(#SVGID_2_)" fill="none" stroke="#16272e" stroke-width="2" stroke-miterlimit="10" d="M23.262,4.3
		c2.079-0.543,4.261-0.832,6.511-0.832c14.191,0,25.695,11.504,25.695,25.696c0,14.191-11.504,25.695-25.695,25.695
		c-3.246,0-6.351-0.602-9.209-1.7"/>
	<path clip-path="url(#SVGID_2_)" fill="none" stroke="#16272e" stroke-width="5" stroke-miterlimit="10" d="M6.447,37.225
		C5.574,34.699,5.1,31.987,5.1,29.165"/>
	<path clip-path="url(#SVGID_2_)" fill="none" stroke="#16272e" stroke-width="5" stroke-miterlimit="10" d="M17.75,50.714
		c-0.401-0.224-0.796-0.46-1.184-0.706c-3.817-2.423-6.924-5.868-8.937-9.948"/>
	<path clip-path="url(#SVGID_2_)" fill="none" stroke="#16272e" stroke-width="5" stroke-miterlimit="10" d="M24.157,53.195
		c-0.626-0.146-1.243-0.315-1.849-0.508"/>
	<path clip-path="url(#SVGID_2_)" fill="none" stroke="#16272e" stroke-width="5" stroke-miterlimit="10" d="M51.14,16.828
		c3.373,5.842,4.084,12.49,2.512,18.541"/>
	
		<line display="none" clip-path="url(#SVGID_2_)" fill="none" stroke="#16272e" stroke-width="0.75" stroke-miterlimit="10" x1="30.054" y1="10.853" x2="30.054" y2="9.784"/>
	
		<line display="none" clip-path="url(#SVGID_2_)" fill="none" stroke="#16272e" stroke-width="0.75" stroke-miterlimit="10" x1="11.46" y1="29.447" x2="10.393" y2="29.447"/>
	
		<line display="none" clip-path="url(#SVGID_2_)" fill="none" stroke="#16272e" stroke-width="0.75" stroke-miterlimit="10" x1="30.054" y1="48.04" x2="30.054" y2="49.109"/>
	
		<line display="none" clip-path="url(#SVGID_2_)" fill="none" stroke="#16272e" stroke-width="0.75" stroke-miterlimit="10" x1="48.647" y1="29.447" x2="49.716" y2="29.447"/>
	
		<line display="none" clip-path="url(#SVGID_2_)" fill="none" stroke="#16272e" stroke-width="0.75" stroke-miterlimit="10" x1="28.396" y1="10.496" x2="28.34" y2="9.859"/>
	
		<line display="none" clip-path="url(#SVGID_2_)" fill="none" stroke="#16272e" stroke-width="0.75" stroke-miterlimit="10" x1="26.751" y1="10.712" x2="26.64" y2="10.083"/>
	
		<line display="none" clip-path="url(#SVGID_2_)" fill="none" stroke="#16272e" stroke-width="0.75" stroke-miterlimit="10" x1="25.13" y1="11.071" x2="24.965" y2="10.455"/>
	
		<line display="none" clip-path="url(#SVGID_2_)" fill="none" stroke="#16272e" stroke-width="0.75" stroke-miterlimit="10" x1="23.548" y1="11.57" x2="23.329" y2="10.97"/>
	
		<line display="none" clip-path="url(#SVGID_2_)" fill="none" stroke="#16272e" stroke-width="0.75" stroke-miterlimit="10" x1="22.015" y1="12.206" x2="21.745" y2="11.626"/>
	
		<line display="none" clip-path="url(#SVGID_2_)" fill="none" stroke="#16272e" stroke-width="0.75" stroke-miterlimit="10" x1="20.542" y1="12.972" x2="20.224" y2="12.419"/>
	
		<line display="none" clip-path="url(#SVGID_2_)" fill="none" stroke="#16272e" stroke-width="0.75" stroke-miterlimit="10" x1="19.143" y1="13.863" x2="18.776" y2="13.34"/>
	
		<line display="none" clip-path="url(#SVGID_2_)" fill="none" stroke="#16272e" stroke-width="0.75" stroke-miterlimit="10" x1="17.826" y1="14.874" x2="17.416" y2="14.384"/>
	
		<line display="none" clip-path="url(#SVGID_2_)" fill="none" stroke="#16272e" stroke-width="0.75" stroke-miterlimit="10" x1="16.603" y1="15.995" x2="16.151" y2="15.543"/>
	
		<line display="none" clip-path="url(#SVGID_2_)" fill="none" stroke="#16272e" stroke-width="0.75" stroke-miterlimit="10" x1="15.481" y1="17.219" x2="14.993" y2="16.808"/>
	
		<line display="none" clip-path="url(#SVGID_2_)" fill="none" stroke="#16272e" stroke-width="0.75" stroke-miterlimit="10" x1="14.471" y1="18.535" x2="13.948" y2="18.169"/>
	
		<line display="none" clip-path="url(#SVGID_2_)" fill="none" stroke="#16272e" stroke-width="0.75" stroke-miterlimit="10" x1="13.58" y1="19.935" x2="13.027" y2="19.615"/>
	
		<line display="none" clip-path="url(#SVGID_2_)" fill="none" stroke="#16272e" stroke-width="0.75" stroke-miterlimit="10" x1="12.813" y1="21.407" x2="12.234" y2="21.137"/>
	
		<line display="none" clip-path="url(#SVGID_2_)" fill="none" stroke="#16272e" stroke-width="0.75" stroke-miterlimit="10" x1="12.178" y1="22.94" x2="11.578" y2="22.722"/>
	
		<line display="none" clip-path="url(#SVGID_2_)" fill="none" stroke="#16272e" stroke-width="0.75" stroke-miterlimit="10" x1="11.679" y1="24.523" x2="11.063" y2="24.357"/>
	
		<line display="none" clip-path="url(#SVGID_2_)" fill="none" stroke="#16272e" stroke-width="0.75" stroke-miterlimit="10" x1="11.32" y1="26.143" x2="10.691" y2="26.032"/>
	
		<line display="none" clip-path="url(#SVGID_2_)" fill="none" stroke="#16272e" stroke-width="0.75" stroke-miterlimit="10" x1="11.103" y1="27.789" x2="10.467" y2="27.732"/>
	
		<line display="none" clip-path="url(#SVGID_2_)" fill="none" stroke="#16272e" stroke-width="0.75" stroke-miterlimit="10" x1="11.103" y1="31.104" x2="10.467" y2="31.16"/>
	
		<line display="none" clip-path="url(#SVGID_2_)" fill="none" stroke="#16272e" stroke-width="0.75" stroke-miterlimit="10" x1="11.32" y1="32.75" x2="10.691" y2="32.861"/>
	
		<line display="none" clip-path="url(#SVGID_2_)" fill="none" stroke="#16272e" stroke-width="0.75" stroke-miterlimit="10" x1="11.679" y1="34.37" x2="11.063" y2="34.536"/>
	
		<line display="none" clip-path="url(#SVGID_2_)" fill="none" stroke="#16272e" stroke-width="0.75" stroke-miterlimit="10" x1="12.178" y1="35.953" x2="11.578" y2="36.17"/>
	
		<line display="none" clip-path="url(#SVGID_2_)" fill="none" stroke="#16272e" stroke-width="0.75" stroke-miterlimit="10" x1="12.813" y1="37.486" x2="12.234" y2="37.756"/>
	
		<line display="none" clip-path="url(#SVGID_2_)" fill="none" stroke="#16272e" stroke-width="0.75" stroke-miterlimit="10" x1="13.58" y1="38.958" x2="13.027" y2="39.278"/>
	
		<line display="none" clip-path="url(#SVGID_2_)" fill="none" stroke="#16272e" stroke-width="0.75" stroke-miterlimit="10" x1="14.471" y1="40.358" x2="13.948" y2="40.723"/>
	
		<line display="none" clip-path="url(#SVGID_2_)" fill="none" stroke="#16272e" stroke-width="0.75" stroke-miterlimit="10" x1="15.481" y1="41.674" x2="14.993" y2="42.084"/>
	
		<line display="none" clip-path="url(#SVGID_2_)" fill="none" stroke="#16272e" stroke-width="0.75" stroke-miterlimit="10" x1="16.603" y1="42.898" x2="16.151" y2="43.349"/>
	
		<line display="none" clip-path="url(#SVGID_2_)" fill="none" stroke="#16272e" stroke-width="0.75" stroke-miterlimit="10" x1="17.826" y1="44.019" x2="17.416" y2="44.508"/>
	
		<line display="none" clip-path="url(#SVGID_2_)" fill="none" stroke="#16272e" stroke-width="0.75" stroke-miterlimit="10" x1="19.143" y1="45.03" x2="18.776" y2="45.552"/>
	
		<line display="none" clip-path="url(#SVGID_2_)" fill="none" stroke="#16272e" stroke-width="0.75" stroke-miterlimit="10" x1="20.542" y1="45.921" x2="20.224" y2="46.474"/>
	
		<line display="none" clip-path="url(#SVGID_2_)" fill="none" stroke="#16272e" stroke-width="0.75" stroke-miterlimit="10" x1="22.015" y1="46.687" x2="21.745" y2="47.266"/>
	
		<line display="none" clip-path="url(#SVGID_2_)" fill="none" stroke="#16272e" stroke-width="0.75" stroke-miterlimit="10" x1="23.548" y1="47.323" x2="23.329" y2="47.922"/>
	
		<line display="none" clip-path="url(#SVGID_2_)" fill="none" stroke="#16272e" stroke-width="0.75" stroke-miterlimit="10" x1="25.13" y1="47.822" x2="24.965" y2="48.438"/>
	
		<line display="none" clip-path="url(#SVGID_2_)" fill="none" stroke="#16272e" stroke-width="0.75" stroke-miterlimit="10" x1="26.751" y1="48.181" x2="26.64" y2="48.81"/>
	
		<line display="none" clip-path="url(#SVGID_2_)" fill="none" stroke="#16272e" stroke-width="0.75" stroke-miterlimit="10" x1="28.396" y1="48.397" x2="28.34" y2="49.034"/>
	
		<line display="none" clip-path="url(#SVGID_2_)" fill="none" stroke="#16272e" stroke-width="0.75" stroke-miterlimit="10" x1="31.712" y1="48.397" x2="31.769" y2="49.034"/>
	
		<line display="none" clip-path="url(#SVGID_2_)" fill="none" stroke="#16272e" stroke-width="0.75" stroke-miterlimit="10" x1="33.358" y1="48.181" x2="33.468" y2="48.81"/>
	
		<line display="none" clip-path="url(#SVGID_2_)" fill="none" stroke="#16272e" stroke-width="0.75" stroke-miterlimit="10" x1="34.978" y1="47.822" x2="35.144" y2="48.438"/>
	
		<line display="none" clip-path="url(#SVGID_2_)" fill="none" stroke="#16272e" stroke-width="0.75" stroke-miterlimit="10" x1="36.562" y1="47.323" x2="36.78" y2="47.922"/>
	
		<line display="none" clip-path="url(#SVGID_2_)" fill="none" stroke="#16272e" stroke-width="0.75" stroke-miterlimit="10" x1="38.095" y1="46.687" x2="38.364" y2="47.266"/>
	
		<line display="none" clip-path="url(#SVGID_2_)" fill="none" stroke="#16272e" stroke-width="0.75" stroke-miterlimit="10" x1="39.565" y1="45.921" x2="39.886" y2="46.474"/>
	
		<line display="none" clip-path="url(#SVGID_2_)" fill="none" stroke="#16272e" stroke-width="0.75" stroke-miterlimit="10" x1="40.966" y1="45.03" x2="41.331" y2="45.552"/>
	
		<line display="none" clip-path="url(#SVGID_2_)" fill="none" stroke="#16272e" stroke-width="0.75" stroke-miterlimit="10" x1="42.282" y1="44.019" x2="42.694" y2="44.508"/>
	
		<line display="none" clip-path="url(#SVGID_2_)" fill="none" stroke="#16272e" stroke-width="0.75" stroke-miterlimit="10" x1="43.507" y1="42.898" x2="43.958" y2="43.349"/>
	
		<line display="none" clip-path="url(#SVGID_2_)" fill="none" stroke="#16272e" stroke-width="0.75" stroke-miterlimit="10" x1="44.628" y1="41.674" x2="45.116" y2="42.084"/>
	
		<line display="none" clip-path="url(#SVGID_2_)" fill="none" stroke="#16272e" stroke-width="0.75" stroke-miterlimit="10" x1="45.638" y1="40.358" x2="46.161" y2="40.723"/>
	
		<line display="none" clip-path="url(#SVGID_2_)" fill="none" stroke="#16272e" stroke-width="0.75" stroke-miterlimit="10" x1="46.528" y1="38.958" x2="47.081" y2="39.278"/>
	
		<line display="none" clip-path="url(#SVGID_2_)" fill="none" stroke="#16272e" stroke-width="0.75" stroke-miterlimit="10" x1="47.296" y1="37.486" x2="47.874" y2="37.756"/>
	
		<line display="none" clip-path="url(#SVGID_2_)" fill="none" stroke="#16272e" stroke-width="0.75" stroke-miterlimit="10" x1="47.931" y1="35.953" x2="48.532" y2="36.17"/>
	
		<line display="none" clip-path="url(#SVGID_2_)" fill="none" stroke="#16272e" stroke-width="0.75" stroke-miterlimit="10" x1="48.429" y1="34.37" x2="49.046" y2="34.536"/>
	
		<line display="none" clip-path="url(#SVGID_2_)" fill="none" stroke="#16272e" stroke-width="0.75" stroke-miterlimit="10" x1="48.788" y1="32.75" x2="49.417" y2="32.861"/>
	
		<line display="none" clip-path="url(#SVGID_2_)" fill="none" stroke="#16272e" stroke-width="0.75" stroke-miterlimit="10" x1="49.005" y1="31.104" x2="49.642" y2="31.16"/>
	
		<line display="none" clip-path="url(#SVGID_2_)" fill="none" stroke="#16272e" stroke-width="0.75" stroke-miterlimit="10" x1="49.005" y1="27.789" x2="49.642" y2="27.732"/>
	
		<line display="none" clip-path="url(#SVGID_2_)" fill="none" stroke="#16272e" stroke-width="0.75" stroke-miterlimit="10" x1="48.788" y1="26.143" x2="49.417" y2="26.032"/>
	
		<line display="none" clip-path="url(#SVGID_2_)" fill="none" stroke="#16272e" stroke-width="0.75" stroke-miterlimit="10" x1="48.429" y1="24.523" x2="49.046" y2="24.357"/>
	
		<line display="none" clip-path="url(#SVGID_2_)" fill="none" stroke="#16272e" stroke-width="0.75" stroke-miterlimit="10" x1="47.931" y1="22.94" x2="48.532" y2="22.722"/>
	
		<line display="none" clip-path="url(#SVGID_2_)" fill="none" stroke="#16272e" stroke-width="0.75" stroke-miterlimit="10" x1="47.296" y1="21.407" x2="47.874" y2="21.137"/>
	
		<line display="none" clip-path="url(#SVGID_2_)" fill="none" stroke="#16272e" stroke-width="0.75" stroke-miterlimit="10" x1="46.528" y1="19.935" x2="47.081" y2="19.615"/>
	
		<line display="none" clip-path="url(#SVGID_2_)" fill="none" stroke="#16272e" stroke-width="0.75" stroke-miterlimit="10" x1="45.638" y1="18.535" x2="46.161" y2="18.169"/>
	
		<line display="none" clip-path="url(#SVGID_2_)" fill="none" stroke="#16272e" stroke-width="0.75" stroke-miterlimit="10" x1="44.628" y1="17.219" x2="45.116" y2="16.808"/>
	
		<line display="none" clip-path="url(#SVGID_2_)" fill="none" stroke="#16272e" stroke-width="0.75" stroke-miterlimit="10" x1="43.507" y1="15.995" x2="43.958" y2="15.543"/>
	
		<line display="none" clip-path="url(#SVGID_2_)" fill="none" stroke="#16272e" stroke-width="0.75" stroke-miterlimit="10" x1="42.282" y1="14.874" x2="42.694" y2="14.384"/>
	
		<line display="none" clip-path="url(#SVGID_2_)" fill="none" stroke="#16272e" stroke-width="0.75" stroke-miterlimit="10" x1="40.966" y1="13.863" x2="41.331" y2="13.34"/>
	
		<line display="none" clip-path="url(#SVGID_2_)" fill="none" stroke="#16272e" stroke-width="0.75" stroke-miterlimit="10" x1="39.565" y1="12.972" x2="39.886" y2="12.419"/>
	
		<line display="none" clip-path="url(#SVGID_2_)" fill="none" stroke="#16272e" stroke-width="0.75" stroke-miterlimit="10" x1="38.095" y1="12.206" x2="38.364" y2="11.626"/>
	
		<line display="none" clip-path="url(#SVGID_2_)" fill="none" stroke="#16272e" stroke-width="0.75" stroke-miterlimit="10" x1="36.562" y1="11.57" x2="36.78" y2="10.97"/>
	
		<line display="none" clip-path="url(#SVGID_2_)" fill="none" stroke="#16272e" stroke-width="0.75" stroke-miterlimit="10" x1="34.978" y1="11.071" x2="35.144" y2="10.455"/>
	
		<line display="none" clip-path="url(#SVGID_2_)" fill="none" stroke="#16272e" stroke-width="0.75" stroke-miterlimit="10" x1="33.358" y1="10.712" x2="33.468" y2="10.083"/>
	
		<line display="none" clip-path="url(#SVGID_2_)" fill="none" stroke="#16272e" stroke-width="0.75" stroke-miterlimit="10" x1="31.712" y1="10.496" x2="31.769" y2="9.859"/>
	<path display="none" clip-path="url(#SVGID_2_)" fill="none" stroke="#16272e" stroke-width="0.5" stroke-miterlimit="10" d="
		M48.056,27.913c0.57,6.758-2.707,13.56-8.971,17.175c-8.639,4.988-19.685,2.028-24.673-6.611"/>
	<path clip-path="url(#SVGID_2_)" fill="none" stroke="#16272e" stroke-width="5" stroke-miterlimit="10" d="M13.913,10.264
		c4.446-3.731,9.823-5.625,15.207-5.765"/>
	
		<line display="none" clip-path="url(#SVGID_2_)" fill="none" stroke="#16272e" stroke-miterlimit="10" x1="30.054" y1="44.856" x2="30.054" y2="45.742"/>
	
		<line display="none" clip-path="url(#SVGID_2_)" fill="none" stroke="#16272e" stroke-miterlimit="10" x1="17.977" y1="39.581" x2="17.571" y2="39.92"/>
	
		<line display="none" clip-path="url(#SVGID_2_)" fill="none" stroke="#16272e" stroke-miterlimit="10" x1="18.906" y1="40.595" x2="18.531" y2="40.969"/>
	
		<line display="none" clip-path="url(#SVGID_2_)" fill="none" stroke="#16272e" stroke-miterlimit="10" x1="19.92" y1="41.524" x2="19.58" y2="41.929"/>
	
		<line display="none" clip-path="url(#SVGID_2_)" fill="none" stroke="#16272e" stroke-miterlimit="10" x1="21.011" y1="42.361" x2="20.708" y2="42.794"/>
	
		<line display="none" clip-path="url(#SVGID_2_)" fill="none" stroke="#16272e" stroke-miterlimit="10" x1="22.171" y1="43.1" x2="21.906" y2="43.558"/>
	
		<line display="none" clip-path="url(#SVGID_2_)" fill="none" stroke="#16272e" stroke-miterlimit="10" x1="23.391" y1="43.736" x2="23.167" y2="44.214"/>
	
		<line display="none" clip-path="url(#SVGID_2_)" fill="none" stroke="#16272e" stroke-miterlimit="10" x1="24.662" y1="44.262" x2="24.481" y2="44.76"/>
	
		<line display="none" clip-path="url(#SVGID_2_)" fill="none" stroke="#16272e" stroke-miterlimit="10" x1="25.974" y1="44.675" x2="25.837" y2="45.186"/>
	
		<line display="none" clip-path="url(#SVGID_2_)" fill="none" stroke="#16272e" stroke-miterlimit="10" x1="27.316" y1="44.973" x2="27.225" y2="45.494"/>
	
		<line display="none" clip-path="url(#SVGID_2_)" fill="none" stroke="#16272e" stroke-miterlimit="10" x1="28.681" y1="45.153" x2="28.634" y2="45.679"/>
	
		<line display="none" clip-path="url(#SVGID_2_)" fill="none" stroke="#16272e" stroke-miterlimit="10" x1="31.429" y1="45.153" x2="31.474" y2="45.679"/>
	
		<line display="none" clip-path="url(#SVGID_2_)" fill="none" stroke="#16272e" stroke-miterlimit="10" x1="32.792" y1="44.973" x2="32.884" y2="45.494"/>
	<path display="none" clip-path="url(#SVGID_2_)" fill="none" stroke="#16272e" stroke-width="0.5" stroke-miterlimit="10" d="
		M12.957,23.623c1.36-3.999,4.121-7.541,8.066-9.819c3.9-2.251,8.289-2.883,12.39-2.105"/>
	
		<circle display="none" clip-path="url(#SVGID_2_)" fill="none" stroke="#16272e" stroke-miterlimit="10" cx="29.765" cy="29.158" r="8.249"/>
	<path clip-path="url(#SVGID_2_)" fill="none" stroke="#16272e" stroke-width="4" stroke-miterlimit="10" d="M31.116,4.512
		c0.641,0.035,1.277,0.095,1.908,0.179"/>
	<path clip-path="url(#SVGID_2_)" fill="none" stroke="#16272e" stroke-width="0.7" stroke-miterlimit="10" d="M55.997,40.915
		c-0.994,2.167-2.277,4.244-3.857,6.178c-9.967,12.191-27.929,13.996-40.122,4.029C-0.175,41.155-1.979,23.191,7.988,11
		c2.279-2.788,4.977-5.033,7.928-6.718"/>
</g>
<rect x="49.249" y="0.5" display="none" width="8" height="4.833"/>
</svg>
