<?xml version="1.0" encoding="utf-8"?>
<!-- Generator: Adobe Illustrator 15.1.0, SVG Export Plug-In . SVG Version: 6.00 Build 0)  -->
<!DOCTYPE svg PUBLIC "-//W3C//DTD SVG 1.1//EN" "http://www.w3.org/Graphics/SVG/1.1/DTD/svg11.dtd">
<svg version="1.1" id="圖層_1" xmlns="http://www.w3.org/2000/svg" xmlns:xlink="http://www.w3.org/1999/xlink" x="0px" y="0px"
	 width="458.606px" height="131.369px" viewBox="0 0 458.606 131.369" enable-background="new 0 0 458.606 131.369"
	 xml:space="preserve">
<polygon fill="#16272e" points="57.361,0 0,131.369 5.64,131.369 63.001,0 "/>
<polygon fill="#16272e" points="74.562,0 17.2,131.369 22.841,131.369 80.201,0 "/>
<polygon fill="#16272e" points="91.762,0 34.4,131.369 40.04,131.369 97.402,0 "/>
<polygon fill="#16272e" points="108.962,0 51.601,131.369 57.241,131.369 114.602,0 "/>
<polygon fill="#16272e" points="126.163,0 68.801,131.369 74.441,131.369 131.802,0 "/>
<polygon fill="#16272e" points="143.363,0 86.002,131.369 91.642,131.369 149.003,0 "/>
<polygon fill="#16272e" points="160.562,0 103.201,131.369 108.841,131.369 166.204,0 "/>
<polygon fill="#16272e" points="177.763,0 120.401,131.369 126.042,131.369 183.403,0 "/>
<polygon fill="#16272e" points="194.965,0 137.603,131.369 143.243,131.369 200.604,0 "/>
<polygon fill="#16272e" points="212.165,0 154.803,131.369 160.442,131.369 217.803,0 "/>
<polygon fill="#16272e" points="229.365,0 172.003,131.369 177.644,131.369 235.003,0 "/>
<polygon fill="#16272e" points="246.564,0 189.204,131.369 194.843,131.369 252.203,0 "/>
<polygon fill="#16272e" points="263.765,0 206.403,131.369 212.042,131.369 269.402,0 "/>
<polygon fill="#16272e" points="280.965,0 223.604,131.369 229.244,131.369 286.604,0 "/>
<polygon fill="#16272e" points="298.165,0 240.805,131.369 246.443,131.369 303.805,0 "/>
<polygon fill="#16272e" points="315.365,0 258.004,131.369 263.644,131.369 321.004,0 "/>
<polygon fill="#16272e" points="332.566,0 275.204,131.369 280.845,131.369 338.204,0 "/>
<polygon fill="#16272e" points="349.767,0 292.405,131.369 298.045,131.369 355.405,0 "/>
<polygon fill="#16272e" points="366.967,0 309.604,131.369 315.243,131.369 372.604,0 "/>
<polygon fill="#16272e" points="384.167,0 326.805,131.369 332.444,131.369 389.805,0 "/>
<polygon fill="#16272e" points="401.366,0 344.006,131.369 349.645,131.369 407.006,0 "/>
<polygon fill="#16272e" points="418.567,0 361.205,131.369 366.846,131.369 424.205,0 "/>
<polygon fill="#16272e" points="435.768,0 378.405,131.369 384.047,131.369 441.405,0 "/>
<polygon fill="#16272e" points="452.967,0 395.606,131.369 401.245,131.369 458.606,0 "/>
</svg>
